<?xml version="1.0" standalone="no"?>
<!DOCTYPE svg PUBLIC "-//W3C//DTD SVG 20010904//EN"
 "http://www.w3.org/TR/2001/REC-SVG-20010904/DTD/svg10.dtd">
<svg version="1.0" xmlns="http://www.w3.org/2000/svg"
 width="700.000000pt" height="700.000000pt" viewBox="0 0 700.000000 700.000000"
 preserveAspectRatio="xMidYMid meet">
<metadata>
Created by potrace 1.11, written by Peter Selinger 2001-2013
</metadata>
<g transform="translate(0.000000,700.000000) scale(0.100000,-0.100000)"
fill="#000000" stroke="none">
<path d="M3190 6989 c-1093 -95 -2086 -706 -2666 -1640 -679 -1091 -699 -2497
-53 -3611 333 -575 857 -1068 1449 -1363 377 -189 720 -292 1160 -352 191 -26
649 -26 840 0 616 83 1120 279 1612 624 465 327 842 770 1103 1298 183 369
286 711 342 1130 22 166 25 646 5 810 -78 640 -300 1206 -667 1701 -600 810
-1512 1318 -2520 1404 -139 11 -466 11 -605 -1z m550 -1460 c509 -63 975 -309
1302 -688 120 -138 216 -285 299 -456 143 -296 201 -551 201 -885 0 -330 -57
-585 -198 -879 -243 -506 -669 -883 -1199 -1059 -218 -73 -404 -102 -645 -102
-241 0 -427 29 -645 102 -666 221 -1166 762 -1341 1449 -77 305 -77 673 0 979
73 288 215 572 400 800 324 401 815 672 1336 739 96 12 393 13 490 0z"/>
<path d="M3300 4289 c-230 -60 -422 -215 -526 -424 -63 -128 -86 -224 -86
-365 0 -364 229 -671 582 -782 65 -20 95 -23 230 -23 135 0 165 3 230 23 281
89 486 304 561 587 28 110 29 279 0 390 -76 293 -303 520 -595 595 -107 27
-290 27 -396 -1z"/>
</g>
</svg>
