<?xml version="1.0" standalone="no"?>
<!DOCTYPE svg PUBLIC "-//W3C//DTD SVG 20010904//EN"
 "http://www.w3.org/TR/2001/REC-SVG-20010904/DTD/svg10.dtd">
<svg version="1.0" xmlns="http://www.w3.org/2000/svg"
 width="700.000000pt" height="700.000000pt" viewBox="0 0 700.000000 700.000000"
 preserveAspectRatio="xMidYMid meet">
<metadata>
Created by potrace 1.11, written by Peter Selinger 2001-2013
</metadata>
<g transform="translate(0.000000,700.000000) scale(0.100000,-0.100000)"
fill="#000000" stroke="none">
<path d="M0 3500 l0 -3500 3500 0 3500 0 0 3500 0 3500 -3500 0 -3500 0 0
-3500z m3554 1552 c152 -395 359 -760 534 -940 180 -185 520 -384 942 -552 85
-34 157 -64 159 -66 2 -2 -5 -6 -15 -10 -201 -68 -570 -240 -747 -347 -267
-164 -398 -293 -563 -560 -101 -161 -275 -530 -345 -729 -7 -21 -16 -38 -19
-38 -3 0 -12 17 -19 38 -69 194 -245 568 -346 732 -163 262 -295 394 -562 557
-177 107 -546 279 -747 347 -10 4 -17 8 -15 10 2 2 74 32 159 66 430 172 762
367 942 552 173 178 369 521 524 918 33 82 61 150 64 150 3 0 27 -57 54 -128z"/>
</g>
</svg>
